# xmcd CD database file
#
# Track frame offsets:
#	150
#	9545
#	32045
#	48149
#	66837
#	76915
#	95664
#	108859
#	126421
#	153045
#	167025
#	184500
#	193521
#	208677
#	220542
#	232871
#	245217
#	264402
#
# Disc length: 3805 seconds
#
# Revision: 0
# Processed by: cddbd v1.5.2PL0 Copyright (c) Steve Scherf et al.
# Submitted via: CDex 1.70beta2
#
DISCID=e70edb12
DTITLE=Ella Fitzgerald - 4 CD Set - CD 4
DYEAR=2006
DGENRE=Jazz
TTITLE0=What Is This Thing Called Love?
TTITLE1=I Love Paris
TTITLE2=Please Be Kind
TTITLE3=Dancing On The Ceiling
TTITLE4=Johnny One Note
TTITLE5=A Ship Without Sail
TTITLE6=This Can´t Be Love
TTITLE7=Litte Girl Blue
TTITLE8=Love For Sale
TTITLE9=Night And Day
TTITLE10=So In Love
TTITLE11=Ace In The Whole
TTITLE12=What Is There To Say?
TTITLE13=Nice Work If You Can Get It
TTITLE14=I´ve Got You Under My Skin
TTITLE15=It´s De-Lovely
TTITLE16=I´m Just A Lucky So And So
TTITLE17=April In Paris
EXTD=YEAR: 2006
EXTT0=
EXTT1=
EXTT2=
EXTT3=
EXTT4=
EXTT5=
EXTT6=
EXTT7=
EXTT8=
EXTT9=
EXTT10=
EXTT11=
EXTT12=
EXTT13=
EXTT14=
EXTT15=
EXTT16=
EXTT17=
PLAYORDER=
